<svg style="height: 17px; width: 17px;" xmlns="http://www.w3.org/2000/svg" viewBox="0 0 512 512"><path d="M256 501C126.4 501 21 398.8 21 273.2c0-87.8 50.6-166.3 132.1-204.9 10.2-4.8 22.4-.5 27.2 9.7 4.8 10.2.5 22.4-9.7 27.2-67.1 31.8-108.7 96.1-108.7 168 0 103.1 87.1 187 194.1 187s194.1-83.9 194.1-187c0-72.4-44-138.9-112.2-169.5-10.3-4.6-14.9-16.7-10.3-27s16.7-14.9 27-10.2C437.5 103.6 491 184.8 491 273.2 491 398.8 385.6 501 256 501z"></path><path d="M256 287.9c-11.3 0-20.4-9.1-20.4-20.4V31.4c0-11.3 9.2-20.4 20.4-20.4 11.3 0 20.4 9.1 20.4 20.4v236.1c0 11.3-9.1 20.4-20.4 20.4z"></path></svg>